<svg xmlns="http://www.w3.org/2000/svg" viewBox="0 0 64 64" role="presentation">
  <defs>
    <linearGradient id="gGrad" x1="0%" y1="0%" x2="0%" y2="100%">
      <stop offset="0%" stop-color="#f4f0e7" />
      <stop offset="100%" stop-color="#dfc8a4" />
    </linearGradient>
  </defs>
  <rect width="64" height="64" rx="12" fill="#0c0d10" />
  <path
    d="M33 18c-3.9-.5-8.7-1-10.7 4-1.8 4.5.7 8.8 3.7 11 2.1 1.6 5.2 3.1 8.4 2.4 4.2-.9 7.4-4.4 7.4-8.7 0-4.7-2.7-8.5-8.8-9.7zm1.3 16.5c-2.8 1.2-7.4-.2-9.6-3.4-1.2-1.7-1.5-4 .4-5.8 1.4-1.4 4.2-1.1 7-1.2 3.5-.1 6.5.6 7.7 3.5.6 1.4.6 3-.1 4.4-.9 2.1-3.1 3.1-5.4 3.4z"
    fill="url(#gGrad)"
  />
</svg>
